<?xml version="1.0" encoding="UTF-8"?>
<svg id="Layer_1" data-name="Layer 1" xmlns="http://www.w3.org/2000/svg" xmlns:xlink="http://www.w3.org/1999/xlink" version="1.1" viewBox="0 0 405 491">
  <defs>
    <style>
      .cls-1 {
        fill: #3d0791;
      }

      .cls-1, .cls-2 {
        stroke-width: 0px;
      }

      .cls-2 {
        fill: url(#linear-gradient);
      }
    </style>
    <linearGradient id="linear-gradient" x1="1.591" y1="160.901" x2="402.494" y2="160.901" gradientUnits="userSpaceOnUse">
      <stop offset="0" stop-color="#00ba96"/>
      <stop offset="1" stop-color="#3d0791"/>
    </linearGradient>
  </defs>
  <path class="cls-2" d="M202.359,7L1.591,114.667l78.534,40.534v98.167l122.234,61.433,122.234-61.433v-98.167l25.334-13.3,22.167-11.4,30.4-15.833L202.359,7ZM286.593,229.301l-82.26,41.439v-20.462l23.954-8.937v-13.33c1.702-1.073,2.896-2.881,2.896-5.042,0-3.348-2.714-6.062-6.062-6.062s-6.061,2.714-6.061,6.062c0,2.159,1.193,3.966,2.893,5.04v8.941l-23.954,8.937v23.652l-59.895-30.173v-22.124c1.701-1.073,2.895-2.88,2.895-5.04,0-3.348-2.714-6.062-6.062-6.062s-6.061,2.714-6.061,6.062c0,2.16,1.194,3.967,2.895,5.041v18.934l-13.646-6.875v-55.1l35.074,18.196v31.922l20.909,10.148c.358,3.006,2.82,5.37,5.922,5.37,3.348,0,6.061-2.714,6.061-6.061s-2.714-6.061-6.061-6.061c-1.197,0-2.249.436-3.188,1.035l-17.309-8.401v-24.666l42.826,22.218,54.589-28.321v20.799c-1.701,1.073-2.895,2.881-2.895,5.041,0,3.348,2.714,6.062,6.062,6.062s6.061-2.714,6.061-6.062c0-2.16-1.194-3.967-2.895-5.041v-24.085l23.311-12.093v55.1h.001ZM201.726,175.468l-52.505-27.246,44.23-22.948,27.961-2.503c1.269,1.18,3.07,1.959,5.137,1.959,3.827,0,6.929-2.552,6.929-5.7s-3.102-5.7-6.929-5.7c-2.707,0-4.991,1.31-6.131,3.171l-28.15,2.52-49.893,25.647-38.069-19.754,42.598-23.872c.742.223,1.52.392,2.356.392,3.827,0,6.929-2.552,6.929-5.7s-3.103-5.7-6.929-5.7-6.929,2.552-6.929,5.7c0,.189.109.348.131.532l-44.888,25.155-13.015-6.754,117.167-65.234,12.21,6.798-37.63,21.251-3.133,25.068-22.328,13.047c-1.103-.61-2.356-1.051-3.784-1.051-3.827,0-6.929,2.552-6.929,5.7s3.103,5.7,6.929,5.7c3.4,0,6.098-2.053,6.687-4.711l25.32-14.801,3.126-25.006,38.23-21.585,28.893,16.086-41.281,20.44c-.932-.384-1.945-.648-3.058-.648-3.827,0-6.929,2.552-6.929,5.7s3.102,5.7,6.929,5.7c3.778,0,6.824-2.494,6.902-5.587l44.157-21.864,43.334,24.127-77.676,41.614-24.818-.796c-1.228-1.596-3.292-2.716-5.757-2.716-3.827,0-6.929,2.552-6.929,5.7s3.102,5.7,6.929,5.7c2.276,0,4.199-.962,5.462-2.355l26.61.849,82.754-44.337,12.948,7.209-117.167,60.8v.003Z"/>
  <g>
    <path class="cls-1" d="M91.398,346.538c-.45.724-.93,1.27-1.425,1.632-.502.362-1.144.543-1.927.543-.701,0-1.447-.218-2.252-.657-.797-.436-1.706-.93-2.717-1.473-1.012-.546-2.171-1.037-3.47-1.473-1.3-.439-2.784-.661-4.445-.661-2.88,0-5.014.613-6.424,1.839-1.403,1.226-2.104,2.88-2.104,4.969,0,1.329.421,2.433,1.27,3.312.842.875,1.957,1.632,3.33,2.267,1.381.635,2.954,1.218,4.718,1.746,1.772.532,3.581,1.119,5.42,1.768,1.846.653,3.655,1.414,5.427,2.293,1.765.879,3.337,1.997,4.718,3.356,1.373,1.362,2.481,3.016,3.33,4.969.849,1.949,1.27,4.301,1.27,7.055,0,3.053-.532,5.911-1.588,8.573s-2.592,4.984-4.6,6.963c-2.016,1.983-4.497,3.541-7.443,4.674-2.946,1.133-6.298,1.702-10.049,1.702-2.06,0-4.15-.214-6.284-.635-2.134-.425-4.194-1.023-6.195-1.794-1.994-.772-3.869-1.683-5.619-2.743-1.757-1.06-3.286-2.237-4.585-3.541l4.534-7.166c.369-.513.842-.945,1.432-1.292s1.233-.524,1.927-.524c.908,0,1.824.288,2.747.864.923.572,1.964,1.211,3.131,1.905,1.159.694,2.503,1.329,4.009,1.905,1.514.576,3.301.86,5.353.86,2.784,0,4.947-.609,6.49-1.835s2.311-3.168,2.311-5.829c0-1.543-.421-2.798-1.27-3.766-.842-.967-1.957-1.768-3.33-2.403-1.381-.635-2.946-1.196-4.696-1.68-1.757-.484-3.552-1.023-5.398-1.61-1.846-.591-3.648-1.318-5.398-2.178-1.757-.864-3.323-1.997-4.696-3.404-1.381-1.407-2.488-3.16-3.337-5.261-.849-2.101-1.27-4.696-1.27-7.782,0-2.477.502-4.899,1.499-7.258s2.466-4.46,4.401-6.306c1.935-1.842,4.305-3.319,7.118-4.423,2.813-1.104,6.04-1.654,9.665-1.654,2.023,0,4.002.159,5.922.476s3.744.786,5.464,1.407c1.728.62,3.337,1.359,4.836,2.223,1.492.86,2.835,1.839,4.009,2.924l-3.81,7.125v-.002Z"/>
    <path class="cls-1" d="M125.194,351.438c3.566,0,6.823.557,9.754,1.676,2.931,1.122,5.449,2.725,7.554,4.811,2.104,2.086,3.736,4.619,4.895,7.598,1.167,2.979,1.75,6.328,1.75,10.049,0,3.751-.583,7.129-1.75,10.138-1.159,3.013-2.791,5.567-4.895,7.668s-4.622,3.721-7.554,4.855c-2.931,1.133-6.188,1.702-9.754,1.702-3.603,0-6.874-.569-9.82-1.702-2.954-1.133-5.494-2.754-7.62-4.855-2.134-2.101-3.78-4.655-4.947-7.668-1.167-3.009-1.75-6.387-1.75-10.138,0-3.721.583-7.07,1.75-10.049s2.813-5.512,4.947-7.598c2.127-2.086,4.667-3.688,7.62-4.811,2.946-1.119,6.217-1.676,9.82-1.676ZM125.194,389.497c3.234,0,5.619-1.141,7.147-3.422,1.521-2.285,2.289-5.756,2.289-10.411s-.768-8.122-2.289-10.389c-1.528-2.271-3.913-3.404-7.147-3.404-3.33,0-5.759,1.133-7.303,3.404-1.543,2.267-2.319,5.73-2.319,10.389s.775,8.126,2.319,10.411c1.543,2.282,3.972,3.422,7.303,3.422Z"/>
    <path class="cls-1" d="M203.27,361.871v23.362c0,1.089.258,1.99.79,2.699.532.713,1.292,1.067,2.289,1.067.517,0,.945-.052,1.3-.159.347-.103.65-.225.901-.362.258-.137.502-.258.731-.362.222-.107.487-.159.79-.159.428,0,.768.096,1.019.292.258.199.524.509.797.93l4.268,6.671c-1.816,1.359-3.862,2.381-6.129,3.061-2.267.679-4.615,1.023-7.029,1.023-2.237,0-4.216-.329-5.922-.978s-3.145-1.569-4.312-2.765c-1.159-1.196-2.045-2.64-2.651-4.334-.605-1.691-.908-3.581-.908-5.671v-24.315h-16.739v37.336h-14.066v-37.38l-3.086-.635c-1.056-.244-1.912-.62-2.562-1.137-.65-.513-.975-1.27-.975-2.267v-5.534h6.623v-2.677c0-2.691.436-5.128,1.292-7.303.864-2.178,2.104-4.039,3.721-5.582s3.589-2.736,5.922-3.585c2.326-.845,4.977-1.27,7.938-1.27,1.152,0,2.208.07,3.175.207.967.133,1.979.354,3.042.657l-.273,6.848c-.03.484-.155.886-.362,1.204-.214.318-.495.576-.842.772s-.716.34-1.108.432c-.399.089-.79.133-1.181.133-1.24,0-2.348.122-3.315.365-.967.24-1.772.672-2.422,1.292s-1.144,1.436-1.477,2.448c-.332,1.015-.502,2.293-.502,3.836v2.223h18.016l2.813-11.57c.362-1.451,1.388-2.175,3.079-2.175h7.354v13.745h11.659v9.617h-11.659,0Z"/>
    <path class="cls-1" d="M249.588,387.094c2.053,0,3.891-.34,5.508-1.019,1.617-.683,2.99-1.658,4.105-2.928,1.122-1.27,1.979-2.821,2.57-4.648.583-1.831.879-3.91.879-6.239v-39.152h15.336v39.152c0,4.054-.657,7.771-1.971,11.161-1.314,3.385-3.197,6.306-5.649,8.753-2.451,2.451-5.427,4.356-8.942,5.719-3.507,1.359-7.45,2.042-11.836,2.042-4.415,0-8.381-.683-11.888-2.042-3.507-1.362-6.483-3.267-8.934-5.719-2.451-2.448-4.327-5.368-5.626-8.753-1.3-3.389-1.949-7.107-1.949-11.161v-39.152h15.329v39.108c0,2.33.295,4.408.886,6.236.591,1.831,1.447,3.389,2.562,4.674,1.122,1.285,2.488,2.267,4.105,2.95,1.617.679,3.456,1.019,5.516,1.019h0Z"/>
    <path class="cls-1" d="M299.716,357.245c.908-.849,1.846-1.636,2.813-2.359.967-.727,2.008-1.34,3.109-1.839,1.108-.498,2.296-.893,3.581-1.181,1.292-.284,2.688-.428,4.201-.428,2.57,0,4.844.447,6.823,1.336,1.986.893,3.655,2.134,5.014,3.721,1.366,1.588,2.392,3.478,3.086,5.671s1.041,4.574,1.041,7.144v29.897h-14.059v-29.897c0-2.296-.532-4.091-1.588-5.375-1.063-1.285-2.621-1.927-4.674-1.927-1.543,0-2.99.325-4.334.975s-2.651,1.536-3.921,2.654v33.57h-14.066v-47.046h8.713c1.75,0,2.902.786,3.448,2.359l.812,2.725h.001Z"/>
    <path class="cls-1" d="M354.29,339.28c0,1.119-.222,2.167-.679,3.153-.45.982-1.071,1.842-1.861,2.584-.783.742-1.698,1.333-2.739,1.768-1.048.439-2.156.657-3.337.657-1.152,0-2.223-.218-3.219-.657-.997-.436-1.883-1.026-2.658-1.768-.768-.742-1.373-1.602-1.809-2.584-.443-.986-.657-2.034-.657-3.153,0-1.152.214-2.226.657-3.223.436-.997,1.041-1.875,1.809-2.632.775-.753,1.661-1.344,2.658-1.768.997-.421,2.067-.635,3.219-.635,1.181,0,2.289.214,3.337.635,1.041.425,1.957,1.015,2.739,1.768.79.757,1.41,1.636,1.861,2.632.458.997.679,2.071.679,3.223ZM352.843,352.161v47.046h-14.066v-47.046h14.066Z"/>
    <path class="cls-1" d="M225.165,484h-11.888c-1.336,0-2.407-.31-3.219-.93-.82-.62-1.44-1.414-1.861-2.381l-3.906-11.522h-25.134l-3.899,11.522c-.332.845-.93,1.61-1.794,2.293-.857.679-1.927,1.019-3.197,1.019h-11.976l25.585-66.099h15.698l25.592,66.099h0ZM200.799,458.733l-6.121-18.101c-.458-1.152-.938-2.503-1.455-4.061s-1.026-3.245-1.543-5.058c-.45,1.846-.938,3.552-1.447,5.124-.517,1.573-1.004,2.935-1.455,4.083l-6.077,18.013h18.098Z"/>
    <path class="cls-1" d="M245.803,484h-15.425v-66.099h15.425v66.099Z"/>
  </g>
</svg>